HIERARCHY
ROOT Pelvis
{
	OFFSET -0.217368 -24.078917 2.858379
	CHANNELS 6 Xposition Yposition Zposition Zrotation Yrotation Xrotation 
	JOINT Left_hip
	{
		OFFSET 5.858135 -8.228005 -1.766408
		CHANNELS 3 Zrotation Yrotation Xrotation
		JOINT Left_knee
		{
			OFFSET 4.345143 -38.646942 0.803700
			CHANNELS 3 Zrotation Yrotation Xrotation
			JOINT Left_ankle
			{
				OFFSET -1.479033 -42.687447 -3.742800
				CHANNELS 3 Zrotation Yrotation Xrotation
				JOINT Left_foot
				{
					OFFSET 4.105436 -6.028605 12.204244
					CHANNELS 3 Zrotation Yrotation Xrotation
					End Site
					{
						OFFSET 0.000000 0.000000 0.000000
					}
				}
			}
		}
	}
	JOINT Right_hip
	{
		OFFSET -6.030973 -9.051328 -1.354253
		CHANNELS 3 Zrotation Yrotation Xrotation
		JOINT Right_knee
		{
			OFFSET -4.325663 -38.368790 -0.484304
			CHANNELS 3 Zrotation Yrotation Xrotation
			JOINT Right_ankle
			{
				OFFSET 1.905555 -42.004566 -3.456167
				CHANNELS 3 Zrotation Yrotation Xrotation
				JOINT Right_foot
				{
					OFFSET -3.483987 -6.210554 13.032330
					CHANNELS 3 Zrotation Yrotation Xrotation
					End Site
					{
						OFFSET 0.000000 0.000000 0.000000
					}
				}
			}
		}
	}
	JOINT Spine1
	{
		OFFSET 0.443945 12.440353 -3.838522
		CHANNELS 3 Zrotation Yrotation Xrotation
		JOINT Spine2
		{
			OFFSET 0.448844 13.795640 2.682033
			CHANNELS 3 Zrotation Yrotation Xrotation
			JOINT Spine3
			{
				OFFSET -0.226460 5.603239 0.285504
				CHANNELS 3 Zrotation Yrotation Xrotation
				JOINT Neck
				{
					OFFSET -1.339018 21.163553 -3.346758
					CHANNELS 3 Zrotation Yrotation Xrotation
					JOINT Head
					{
						OFFSET 1.011321 8.893734 5.040987
						CHANNELS 3 Zrotation Yrotation Xrotation
						End Site
						{
							OFFSET 0.000000 0.000000 0.000000
						}
					}
				}
				JOINT Left_collar
				{
					OFFSET 7.170247 11.399971 -1.889817
					CHANNELS 3 Zrotation Yrotation Xrotation
					JOINT Left_shoulder
					{
						OFFSET 12.292140 4.520507 -1.904600
						CHANNELS 3 Zrotation Yrotation Xrotation
						JOINT Left_elbow
						{
							OFFSET 25.533188 -1.564902 -2.294648
							CHANNELS 3 Zrotation Yrotation Xrotation
							JOINT Left_wrist
							{
								OFFSET 26.570929 1.269810 -0.737473
								CHANNELS 3 Zrotation Yrotation Xrotation
								JOINT Left_palm
								{
									OFFSET 8.669054 -1.063602 -1.559429
									CHANNELS 3 Zrotation Yrotation Xrotation
									End Site
									{
										OFFSET 0.000000 0.000000 0.000000
									}
								}
							}
						}
					}
				}
				JOINT Right_collar
				{
					OFFSET -8.295364 11.247234 -2.370738
					CHANNELS 3 Zrotation Yrotation Xrotation
					JOINT Right_shoulder
					{
						OFFSET -11.322830 4.685326 -0.847207
						CHANNELS 3 Zrotation Yrotation Xrotation
						JOINT Right_elbow
						{
							OFFSET -26.012751 -1.436928 -3.126872
							CHANNELS 3 Zrotation Yrotation Xrotation
							JOINT Right_wrist
							{
								OFFSET -26.910841 0.679372 -0.602677
								CHANNELS 3 Zrotation Yrotation Xrotation
								JOINT Right_palm
								{
									OFFSET -8.875370 -0.865157 -1.010708
									CHANNELS 3 Zrotation Yrotation Xrotation
									End Site
									{
										OFFSET 0.000000 0.000000 0.000000
									}
								}
							}
						}
					}
				}
			}
		}
	}
}
MOTION
Frames: 9
Frame Time: 0.016667
0.059348 59.154739 2.513816 -1.031179 -6.648914 -7.544462 18.560839 0.558937 -10.975371 -14.891070 5.678258 38.358763 16.040949 33.484678 -7.220980 0.000000 0.000000 0.000000 -15.689949 -0.181280 -14.560760 13.294860 -5.117971 43.449418 -12.353814 -30.822623 -5.582560 0.000000 0.000000 0.000000 4.946681 -0.575075 6.354571 -1.798718 0.961371 -11.330853 -2.465158 7.001047 15.508128 5.061533 -1.841571 -15.696265 0.000000 0.000000 0.000000 -17.670814 -26.216433 12.221019 6.928029 -42.322001 -4.325694 -3.221779 -28.582288 1.863623 0.000000 0.000000 0.000000 0.000000 0.000000 0.000000 18.104509 24.170158 11.317875 -1.034542 30.469126 -1.874327 -8.905995 33.687336 -1.452155 0.000000 0.000000 0.000000 0.000000 0.000000 0.000000 
0.066810 59.122711 2.508241 -1.077269 -6.739464 -7.526221 18.647572 0.570656 -11.036155 -14.910240 5.690472 38.384448 15.879777 33.287527 -7.671666 0.000000 0.000000 0.000000 -15.635673 -0.183259 -14.766783 13.471107 -5.224135 43.579217 -12.253798 -30.698743 -6.024694 0.000000 0.000000 0.000000 4.875599 -0.580083 6.468796 -1.625072 0.899855 -11.487823 -2.425818 7.068333 15.699684 4.973625 -1.712264 -16.316097 0.000000 0.000000 0.000000 -18.285210 -26.232741 12.345608 6.890174 -42.127090 -4.287917 -3.804398 -28.152963 1.978252 0.000000 0.000000 0.000000 0.000000 0.000000 0.000000 18.510620 24.339118 11.483099 -1.546650 30.591937 -1.982472 -8.769538 33.610907 -1.409614 0.000000 0.000000 0.000000 0.000000 0.000000 0.000000 
0.069448 59.081085 2.504506 -1.095628 -6.667420 -7.681664 18.668696 0.563383 -10.910876 -14.894800 5.715261 38.656764 16.033285 33.608562 -7.672186 0.000000 0.000000 0.000000 -15.731959 -0.196451 -14.844365 13.538804 -5.284138 43.817868 -12.326965 -30.668223 -5.272874 0.000000 0.000000 0.000000 4.882840 -0.582254 6.489073 -1.538717 0.869919 -11.607852 -2.408549 7.015074 16.036687 4.797604 -1.589190 -16.482104 0.000000 0.000000 0.000000 -18.801659 -26.273481 12.466641 6.602094 -41.992588 -4.185208 -3.846722 -28.426182 2.009040 0.000000 0.000000 0.000000 0.000000 0.000000 0.000000 18.556339 24.595062 11.638036 -1.934565 30.678752 -2.064769 -8.980797 33.474679 -1.462104 0.000000 0.000000 0.000000 0.000000 0.000000 0.000000 
0.073272 59.018456 2.499967 -0.904834 -6.301531 -7.874382 18.522565 0.561804 -11.061167 -14.946330 5.780844 38.999052 16.285986 33.941784 -7.069243 0.000000 0.000000 0.000000 -16.145631 -0.241681 -14.866702 13.665079 -5.383055 44.125831 -12.415828 -30.845214 -5.124694 0.000000 0.000000 0.000000 4.784056 -0.602402 6.809701 -1.390671 0.822812 -12.118290 -2.598297 6.816824 16.498411 4.842138 -1.581844 -16.753833 0.000000 0.000000 0.000000 -18.921578 -26.175113 12.432396 6.198787 -42.045087 -4.073840 -3.103543 -28.633894 1.837409 0.000000 0.000000 0.000000 0.000000 0.000000 0.000000 18.892820 24.546725 11.668531 -2.336501 31.195093 -2.185787 -9.202093 33.344545 -1.517197 0.000000 0.000000 0.000000 0.000000 0.000000 0.000000 
0.078343 59.046509 2.491296 -0.788516 -6.166490 -7.937292 18.459607 0.567064 -11.211779 -15.019468 5.845585 39.242303 16.316988 33.810110 -6.447485 0.000000 0.000000 0.000000 -16.370796 -0.272126 -15.010590 13.765275 -5.444679 44.201627 -12.316561 -30.455631 -4.594922 0.000000 0.000000 0.000000 4.803779 -0.616861 6.967443 -1.245411 0.776389 -12.500254 -2.883852 6.939588 16.956892 4.944732 -1.615231 -16.964670 0.000000 0.000000 0.000000 -19.189454 -26.243353 12.522768 6.152332 -41.913628 -4.043400 -2.345514 -28.685862 1.649865 0.000000 0.000000 0.000000 0.000000 0.000000 0.000000 19.169304 24.465476 11.669255 -2.911474 31.608929 -2.337677 -9.410175 33.080053 -1.560425 0.000000 0.000000 0.000000 0.000000 0.000000 0.000000 
0.081019 59.067238 2.486810 -0.791170 -5.830170 -8.019091 18.232600 0.555148 -11.324583 -14.527729 5.666612 39.772512 16.345306 33.667400 -5.797357 0.000000 0.000000 0.000000 -16.473507 -0.279326 -14.921889 13.769750 -5.438324 44.117465 -12.314023 -30.353785 -4.239179 0.000000 0.000000 0.000000 4.989071 -0.624679 6.907734 -1.426969 0.840344 -12.506533 -2.876015 6.630538 17.307042 4.964767 -1.673550 -16.586453 0.000000 0.000000 0.000000 -18.213518 -26.514932 12.493366 5.978253 -41.839176 -3.983224 -1.426600 -28.620869 1.415067 0.000000 0.000000 0.000000 0.000000 0.000000 0.000000 18.624184 24.475994 11.581245 -3.195132 32.084994 -2.439185 -9.638376 32.658063 -1.598874 0.000000 0.000000 0.000000 0.000000 0.000000 0.000000 
0.083140 59.108772 2.474981 -0.708779 -5.669764 -8.254349 18.167896 0.531794 -11.064427 -14.399656 5.617283 39.894334 16.486909 33.817267 -5.367765 0.000000 0.000000 0.000000 -16.607522 -0.281983 -14.664154 13.602426 -5.323200 43.868536 -12.274067 -30.271165 -4.290474 0.000000 0.000000 0.000000 5.041687 -0.653467 7.202778 -1.409996 0.837574 -12.772002 -3.042127 6.537065 17.585648 5.016856 -1.714537 -16.500325 0.000000 0.000000 0.000000 -17.302237 -26.652415 12.396657 5.959420 -41.796262 -3.972353 -0.211407 -28.906045 1.121581 0.000000 0.000000 0.000000 0.000000 0.000000 0.000000 18.167591 24.580830 11.562561 -3.122775 32.631125 -2.473515 -10.227142 31.859704 -1.708516 0.000000 0.000000 0.000000 0.000000 0.000000 0.000000 
0.087532 59.085754 2.458284 -0.642433 -5.547193 -8.531025 18.161677 0.525791 -10.983857 -14.232006 5.586265 40.355872 16.465779 33.538339 -4.575203 0.000000 0.000000 0.000000 -16.752002 -0.287579 -14.458807 13.516211 -5.279682 43.892975 -12.222541 -30.173440 -4.391796 0.000000 0.000000 0.000000 5.096313 -0.682323 7.493581 -1.383155 0.828358 -12.784724 -3.112517 6.493140 17.736091 5.094923 -1.778387 -16.353751 0.000000 0.000000 0.000000 -16.510222 -26.553879 12.191007 6.293286 -41.959133 -4.090434 0.656411 -29.450816 0.919282 0.000000 0.000000 0.000000 0.000000 0.000000 0.000000 17.500265 24.495016 11.399328 -3.253358 33.398956 -2.572529 -10.648058 31.378366 -1.787660 0.000000 0.000000 0.000000 0.000000 0.000000 0.000000 
0.091011 59.051353 2.443058 -0.522935 -5.400923 -8.863369 18.136464 0.517946 -10.899445 -14.123521 5.585647 40.835190 16.223272 32.969328 -4.228654 0.000000 0.000000 0.000000 -16.846787 -0.288242 -14.267074 13.427023 -5.241560 43.987660 -12.318696 -30.274122 -3.896071 0.000000 0.000000 0.000000 4.848769 -0.698744 7.909467 -1.159160 0.753356 -13.004585 -3.249021 6.551230 17.773632 5.358531 -1.992606 -15.886866 0.000000 0.000000 0.000000 -15.856282 -26.582064 12.082977 6.996416 -41.809995 -4.275761 0.626713 -29.990854 0.944717 0.000000 0.000000 0.000000 0.000000 0.000000 0.000000 16.957774 24.555117 11.340350 -3.320434 33.496556 -2.596585 -10.560425 31.319391 -1.760774 0.000000 0.000000 0.000000 0.000000 0.000000 0.000000 
